
<svg xmlns="http://www.w3.org/2000/svg" viewBox="0 0 600 600" version="1.1">
   <!--<circle cx="300" cy="300" r="200" stroke="#90EE90" stroke-width="6" fill="#90EE90"/>-->
   <!--<circle cx="300" cy="300" r="160" stroke="#00EE90" stroke-width="6" fill="#90EE90"/>-->
   
   <!--<line x1="300" x2="300" y1="150" y2="450" stroke="orange" stroke-width="5"/>
<line x1="150" x2="450" y1="300" y2="300" stroke="orange" stroke-width="5"/>

<circle id="guide_1" cx="300" cy="300" r="100" stroke="#00EE90" stroke-width="6" fill="#FFFFFF"/>-->
   
   
   

   <path id="bottom_text_path" d="M 155,438 C 260,535 360,515 480,415" fill="transparent"/>
   <path id="top_text_path" d="M 175,190 C 260,120 360,85 500,280" fill="transparent"/>
   <text style="fill:red;font-size:50;" fill="#000000">
   <textPath xmlns:xlink="http://www.w3.org/1999/xlink" xlink:href="#bottom_text_path">
   Lets Get Started
   </textPath>
   </text>
   <text style="fill:red;font-size:50;" fill="#000000">
   <textPath xmlns:xlink="http://www.w3.org/1999/xlink" xlink:href="#top_text_path">
   Virtual Yugam
   </textPath>
   
   </text>
   
   <path id="controller_spectacles" 
   d="M 380 250
   C 400 300,380 340,340 320
   C 300 270, 300 270,260 320
   C 230 340,195 300,220 250
   Z"
   stroke="#e75480" fill="#000000" stroke-width="3"/>
   
   <rect x="240" y="270" width="10" height="30"
  style="fill:#e75480;stroke:transparent;stroke-width:0;fill-opacity:1;stroke-opacity:0.9" />
  <rect x="230" y="280" width="30" height="10"
  style="fill:#e75480;stroke:transparent;stroke-width:0;fill-opacity:1;stroke-opacity:0.9" />
  
  <circle id="button_icon_1" cx="345" cy="275" r="5" fill="#e75480"/>
  <circle id="button_icon_2" cx="365" cy="275" r="5" fill="#e75480"/>
  <circle id="button_icon_3" cx="345" cy="295" r="5" fill="#e75480"/>
  <circle id="button_icon_4" cx="365" cy="295" r="5" fill="#e75480"/>
  
  <line id="nose_line_1" x1="290" y1="320" x2="300" y2="340" style="stroke:rgb(255,0,0);stroke-width:2" />
  <line id="nose_line_2" x1="300" y1="340" x2="310" y2="320" style="stroke:rgb(255,0,0);stroke-width:2" />
   
  <path id="smile_path" 
   d="M 270 350
   C 270 380, 330 380,330 350
   M 300 372
   L 300 390
   "
   stroke="#e75480" fill="#00000000" stroke-width="3">
   <animate xlink:href="#smile_path" attributeName="x1" values="270;270;270" dur="10s" repeatCount="indefinite" />
   <animate xlink:href="#smile_path" attributeName="x2" values="330;330;330" dur="10s" repeatCount="indefinite" />
   <animate xlink:href="#smile_path" attributeName="y1" values="320;380;320" dur="10s" repeatCount="indefinite" />
   <animate xlink:href="#smile_path" attributeName="y2" values="320;380;320" dur="10s" repeatCount="indefinite" />
   </path>

   <text x="310" y="340">
  irtual
  </text>
  
  <text x="305" y="390">
  ugam
  </text>
   
   
   <!--<path id="face_shape_guide_rect" 
   d="M 220 250
   L 380 250   
   C 400 300,380 340,340 320
   M 220 250
   C 195 300,230 340,260 320
   C 300 270, 300 270,340 320
   "
   stroke="#e75480" fill="#000000" stroke-width="3"/>-->
   
   <!--<path id="face_shape" 
   d="M 250 250
   L 200 200
   L 200 100
   Z"
   stroke="#000000" fill="#e75480" stroke-width="3"/>-->
   
   <!--<text x="135" y="300"  style="fill:red;font-size:50;" fill="#000000">d="M 155,440 C 260,550 360,510 480,420"
   Lets Get Started
   <text>-->
<!-- <path id="bCurve"
   d="M 250 300 
   C 250 230, 350 230, 350 300
   L 400 300
   C 400 170, 200 170, 200 300
   Z"
   stroke="#e75480" fill="#e75480" stroke-width="0"/>
   
   <path id="bRectangle"
   d="M 200 80 
   L 200 300 
   L 250 300
   L 250 80
   Z" stroke="darkblue" fill="darkblue" stroke-width="0"/>
   
   <path id="pRectangle"
   d="M 200 300 
   L 200 520 
   L 250 520
   L 250 300
   Z" stroke="#e75480" fill="#e75480" stroke-width="0"/>
   
   <path id="bCurve"
   d="M 250 300 
   C 250 370, 350 370, 350 300
   L 400 300
   C 400 430, 200 430, 200 300
   Z" stroke="darkblue" fill="darkblue" stroke-width="0"/> -->
   
   Sorry, your browser does not support inline SVG.
</svg>

